<svg xmlns="http://www.w3.org/2000/svg" enable-background="new 0 0 260 260" viewBox="0 0 260 260"><path fill="#EDF5F9" d="M191.784668 244.9569092h-90.8095703c-3.8242188 0-6.9350586-3.111084-6.9350586-6.9350586v-3.869873c0-2.7211914-2.2138672-4.9350586-4.9350586-4.9350586H53.5351563c-8.2519531 0-14.965332-6.7133789-14.965332-14.9650879v-22.6750488c0-3.572998-2.9067383-6.4799805-6.4799805-6.4799805-4.6757813 0-8.4799805-3.8041992-8.4799805-8.4799805v-5.6799316c0-4.6757813 3.8041992-8.4799805 8.4799805-8.4799805h10.9853516c7.1489258 0 12.9648438-5.8161621 12.9648438-12.9650879v-8.4399414c0-7.1489258-5.815918-12.9650879-12.9648438-12.9650879h-23.590332c-8.2514648 0-14.9648438-6.7131348-14.9648438-14.9648438V93.9017334c0-8.251709 6.7133789-14.9648438 14.9648438-14.9648438h74.7504883c7.1489258 0 12.9648438-5.8161621 12.9648438-12.9650879s-5.815918-12.9648438-12.9648438-12.9648438H71.0048828c-8.2514648 0-14.9648438-6.7133789-14.9648438-14.9650879V24.1817627c0-8.251709 6.7133789-14.9648438 14.9648438-14.9648438h125.5551758c2.7568359 0 5 2.2429199 5 5s-2.2431641 5-5 5h-23.8598633c-1.5825195 0-2.8701172 1.2873535-2.8701172 2.869873s1.2875977 2.8701172 2.8701172 2.8701172h50.6948242c6.3105469 0 11.4448242 5.1340332 11.4448242 11.4448242s-5.1342773 11.4450684-11.4448242 11.4450684h-41.4946289c-3.4516602 0-6.5258789 1.7941895-8.2236328 4.7998047-1.6977539 3.005127-1.6474609 6.564209.1342773 9.5205078l17.3432617 28.7770996c2.3320313 3.8691406 6.5869141 6.2727051 11.1044922 6.2727051h46.9311523c2.7568359 0 5 2.2429199 5 5v6.4199219c0 2.7570801-2.2431641 5-5 5h-3.6098633c-1.6542969 0-3 1.3457031-3 3v10.1201172c0 2.7570801-2.2431641 5-5 5h-21.7651367c-7.1489258 0-12.9648438 5.815918-12.9648438 12.9648438v23.6101074c0 7.1489258 5.815918 12.9648438 12.9648438 12.9648438h24.7001953c8.2514648 0 14.9648438 6.7133789 14.9648438 14.9650879v14.380127c0 8.251709-6.7133789 14.9648438-14.9648438 14.9648438h-94.3251953c-1.5107422 0-2.7397461 1.229248-2.7397461 2.7399902s1.2290039 2.7399902 2.7397461 2.7399902h45.5947266c3.8242188 0 6.9350586 3.111084 6.9350586 6.9350586S195.6088867 244.9569092 191.784668 244.9569092zM32.0898438 164.4569092c-3.5732422 0-6.4799805 2.9069824-6.4799805 6.4799805v5.6799316c0 3.572998 2.9067383 6.4799805 6.4799805 6.4799805 4.6757813 0 8.4799805 3.8041992 8.4799805 8.4799805v22.6750488c0 7.1489258 5.8164063 12.9650879 12.965332 12.9650879h35.5698242c3.8242188 0 6.9350586 3.111084 6.9350586 6.9350586v3.869873c0 2.7211914 2.2138672 4.9350586 4.9350586 4.9350586h90.8095703c2.7211914 0 4.9350586-2.2138672 4.9350586-4.9350586s-2.2138672-4.9350586-4.9350586-4.9350586h-45.5947266c-2.6132813 0-4.7397461-2.1264648-4.7397461-4.7399902s2.1264648-4.7399902 4.7397461-4.7399902h94.3251953c7.1489258 0 12.9648438-5.815918 12.9648438-12.9648438v-14.380127c0-7.1489258-5.815918-12.9650879-12.9648438-12.9650879h-24.7001953c-8.2514648 0-14.9648438-6.7131348-14.9648438-14.9648438v-23.6101074c0-8.251709 6.7133789-14.9648438 14.9648438-14.9648438h21.7651367c1.6542969 0 3-1.3457031 3-3v-10.1201172c0-2.7570801 2.2431641-5 5-5h3.6098633c1.6542969 0 3-1.3457031 3-3v-6.4199219c0-1.6542969-1.3457031-3-3-3h-46.9311523c-5.2143555 0-10.1254883-2.7744141-12.8173828-7.2404785l-17.3432617-28.7770996c-2.1591797-3.5820313-2.2197266-7.8947754-.1630859-11.5366211 2.0576172-3.6416016 5.7827148-5.815918 9.965332-5.815918h41.4946289c5.2080078 0 9.4448242-4.2370605 9.4448242-9.4450684s-4.2368164-9.4448242-9.4448242-9.4448242h-50.6948242c-2.6855469 0-4.8701172-2.1848145-4.8701172-4.8701172s2.1845703-4.869873 4.8701172-4.869873h23.8598633c1.6542969 0 3-1.3457031 3-3s-1.3457031-3-3-3H71.0048828c-7.1489258 0-12.9648438 5.815918-12.9648438 12.9648438v13.8601074c0 7.1489258 5.815918 12.9650879 12.9648438 12.9650879h23.2304688c8.2514648 0 14.9648438 6.7131348 14.9648438 14.9648438s-6.7133789 14.9650879-14.9648438 14.9650879H19.4848633c-7.1489258 0-12.9648438 5.815918-12.9648438 12.9648438v19.2202148c0 7.1489258 5.815918 12.9648438 12.9648438 12.9648438h23.590332c8.2514648 0 14.9648438 6.7133789 14.9648438 14.9650879v8.4399414c0 8.251709-6.7133789 14.9650879-14.9648438 14.9650879H32.0898438zM21.1479492 235.3104248c-.5522461 0-1-.4477539-1-1v-5.4379883c0-.5522461.4477539-1 1-1s1 .4477539 1 1v5.4379883C22.1479492 234.8626709 21.7001953 235.3104248 21.1479492 235.3104248z"/><path fill="#EDF5F9" d="M23.8671875 232.5914307h-5.4384766c-.5522461 0-1-.4477539-1-1s.4477539-1 1-1h5.4384766c.5522461 0 1 .4477539 1 1S24.4194336 232.5914307 23.8671875 232.5914307zM102.8129883 27.3553467c-.5522461 0-1-.4477539-1-1v-5.4379883c0-.5522461.4477539-1 1-1s1 .4477539 1 1v5.4379883C103.8129883 26.9075928 103.3652344 27.3553467 102.8129883 27.3553467z"/><path fill="#EDF5F9" d="M105.5322266 24.6363525h-5.4379883c-.5522461 0-1-.4477539-1-1s.4477539-1 1-1h5.4379883c.5522461 0 1 .4477539 1 1S106.0844727 24.6363525 105.5322266 24.6363525zM238.3828125 73.49646c-1.6542969 0-3-1.3457031-3-3s1.3457031-3 3-3 3 1.3457031 3 3S240.0371094 73.49646 238.3828125 73.49646zM238.3828125 69.49646c-.5512695 0-1 .4484863-1 1s.4487305 1 1 1 1-.4484863 1-1S238.934082 69.49646 238.3828125 69.49646zM227.3242188 248.8218994c-2.2055664 0-4-1.7944336-4-4s1.7944336-4 4-4 4 1.7944336 4 4S229.5297852 248.8218994 227.3242188 248.8218994zM227.3242188 242.8218994c-1.1030273 0-2 .8972168-2 2s.8969727 2 2 2 2-.8972168 2-2S228.4272461 242.8218994 227.3242188 242.8218994zM53.0258789 250.7830811c-1.6542969 0-3-1.3457031-3-3s1.3457031-3 3-3 3 1.3457031 3 3S54.6801758 250.7830811 53.0258789 250.7830811zM53.0258789 246.7830811c-.5512695 0-1 .4484863-1 1s.4487305 1 1 1 1-.4484863 1-1S53.5771484 246.7830811 53.0258789 246.7830811zM40.2792969 69.8922119c-1.6542969 0-3-1.3457031-3-3s1.3457031-3 3-3 3 1.3457031 3 3S41.9335938 69.8922119 40.2792969 69.8922119zM40.2792969 65.8922119c-.5512695 0-1 .4484863-1 1s.4487305 1 1 1 1-.4484863 1-1S40.8305664 65.8922119 40.2792969 65.8922119zM147.1118164 17.6177979c-1.6542969 0-3-1.3457031-3-3s1.3457031-3 3-3 3 1.3457031 3 3S148.7661133 17.6177979 147.1118164 17.6177979zM147.1118164 13.6177979c-.5512695 0-1 .4484863-1 1s.4487305 1 1 1 1-.4484863 1-1S147.6630859 13.6177979 147.1118164 13.6177979zM8.5200195 155.1949463c-2.2055664 0-4-1.7944336-4-4s1.7944336-4 4-4 4 1.7944336 4 4S10.7255859 155.1949463 8.5200195 155.1949463zM8.5200195 149.1949463c-1.1030273 0-2 .8972168-2 2s.8969727 2 2 2 2-.8972168 2-2S9.6230469 149.1949463 8.5200195 149.1949463zM240.7426758 159.9237061c-.5522461 0-1-.4477539-1-1v-5.4382324c0-.5522461.4477539-1 1-1s1 .4477539 1 1v5.4382324C241.7426758 159.4759521 241.2949219 159.9237061 240.7426758 159.9237061z"/><path fill="#EDF5F9" d="M243.4619141 157.2047119h-5.4379883c-.5522461 0-1-.4477539-1-1s.4477539-1 1-1h5.4379883c.5522461 0 1 .4477539 1 1S244.0141602 157.2047119 243.4619141 157.2047119zM19.234375 60.7923584c-.5522461 0-1-.4477539-1-1V54.354126c0-.5522461.4477539-1 1-1s1 .4477539 1 1v5.4382324C20.234375 60.3446045 19.7866211 60.7923584 19.234375 60.7923584z"/><path fill="#EDF5F9" d="M21.9536133,58.0733643L21.9536133,58.0733643l-5.4384766-0.0002441c-0.5522461,0-1-0.4477539-1-1
				s0.4477539-1,1-1l0,0l5.4384766,0.0002441c0.5522461,0,1,0.4477539,1,1S22.5058594,58.0733643,21.9536133,58.0733643z"/><path fill="#434A54" d="M115.8370056,66.5642853c0,7.3493042-5.9564438,13.2928391-13.2925262,13.2928391
			c-0.1677704,0-0.3352356,0-0.503006-0.0132217c0,0-0.0129089,18.1277466-0.0258102,18.1277466l-3.5972214-0.3349228v23.9812546
			c-3.3520126,0-6.3820114-1.3541489-8.5737686-3.5455933c-2.2046661-2.2046661-3.5585022-5.2346725-3.5585022-8.586998V55.2418823
			h16.2583084C109.8805618,55.2418823,115.8370056,59.2149773,115.8370056,66.5642853z"/><rect width="12.132" height=".774" x="86.286" y="54.468" fill="#434A54"/><path fill="#12C495" d="M205.3968658,225.468399l-1.2574463-22.5037842
				c-1.1504974-20.5898285-14.825531-38.3604889-34.4337616-44.746582l-11.3236542-3.6879272
				c-1.0017548,9.9145203-8.0651703,23.9556274-14.8374023,33.3137207
				c-3.7672729-6.2160187-8.2193146-11.6525726-13.5446625-16.1217499
				c-5.3253632,4.4691772-9.7774048,9.9057312-13.5446777,16.1217499
				c-6.7722321-9.3580933-13.83564-23.3992004-14.8373947-33.3137207l-11.3236542,3.6879272
				c-19.6082306,6.3860931-33.2832642,24.1567535-34.4337692,44.746582l-1.2574463,22.5037842H205.3968658z"/><path fill="#22D7AC" d="M171.0960999,215.1212921H55.1877708l0.6763039-12.1575775
				c1.1473427-20.5909271,14.8203583-38.3564606,34.4266739-44.7434692l11.3271179-3.6901398
				c1.0017548,9.9145203,8.0651627,23.9556274,14.8373947,33.3137207
				c3.7672729-6.2160187,8.2193146-11.6525726,13.5446777-16.1217499
				c5.3253479,4.4691772,9.7773895,9.9057312,13.5446625,16.1217499
				c6.7722321-9.3580933,13.8356476-23.3992004,14.8374023-33.3137207l11.3271179,3.6901398
				c0.0401611,0.0130615,0.0803223,0.0261536,0.1204376,0.0392914c7.7090607,2.5254364,14.1226959,8.1081543,17.6521606,15.412262
				c2.8114929,5.8182831,4.519516,12.2331085,4.8987732,18.9493103
				C193.0569,204.8386841,183.339386,215.1212921,171.0960999,215.1212921z"/><polygon fill="#434A54" points="133.961 191.017 141.761 181.824 130 170.063 118.239 181.824 126.04 191.017"/><polygon fill="#434A54" points="144.406 225.468 133.96 191.017 126.039 191.017 115.594 225.468"/><path fill="#EDF5F9" d="M158.3824005,154.5259857c-1.002243,9.921463-8.0648956,23.9557343-14.8407898,33.3167572
			c-3.7786713-6.2492523-8.264679-11.7113037-13.6297455-16.1959686c0,0,14.4492645-8.2857971,21.0124817-25.0512695
			C150.9243469,146.5955048,157.5265656,150.8620758,158.3824005,154.5259857z"/><path fill="#EDF5F9" d="M101.617485,154.5259857c1.002243,9.921463,8.0648956,23.9557343,14.8407822,33.3167572
			c3.7786713-6.2492523,8.264679-11.7113037,13.6297455-16.1959686c0,0-14.4492569-8.2857971-21.0124817-25.0512695
			C109.075531,146.5955048,102.4733124,150.8620758,101.617485,154.5259857z"/><path fill="#F9E1D7" d="M109.0756149,129.461731V146.59552c6.2800903,16.0423737,19.7717056,24.3151093,20.9242935,24.9995117
				c1.1528931-0.6844025,14.6442108-8.9571381,20.9243927-24.9995117V129.461731H109.0756149z"/><path fill="#F9E1D7" d="M94.317131,61.030735v41.6303825c0,21.1245575,16.7453461,39.7210236,37.4015274,41.5363007
				c20.6563873,1.8154755,37.4016418-13.8375854,37.4016418-34.9621353V59.0868874l-15.0162659-1.3195572L94.317131,61.030735z"/><path fill="#F9E1D7" d="M169.1241913,59.0865517v50.1539497c0,21.1187057-16.7480927,36.77108-37.402832,34.9529648
				c-20.6547318-1.8049164-37.4028244-20.4098511-37.4028244-41.5285645V61.0331039l59.785347-3.261673L169.1241913,59.0865517z"/><path fill="#EDC1B2" d="M169.1241913 73.5396423v3.4423523h-37.402832c-7.8003693 0-15.1880798-3.4297638-20.2291565-9.3600769h3.532692c4.6800308 3.8030853 10.5593491 5.9177246 16.6964645 5.9177246H169.1241913zM169.1161499 104.2404251v4.991539c0 10.5650101-4.1859741 19.7604828-10.9503784 26.0839081-6.772995 6.3312378-16.1244049 9.7902222-26.4470825 8.8830109-20.6535568-1.8151703-37.3974686-20.4101334-37.3974686-41.5403595v-4.991539c0 21.1216507 16.7439117 39.7166214 37.3974686 41.5317764 10.3226776.9072266 19.6740875-2.5517578 26.4470825-8.8744354C164.9301758 123.9925385 169.1161499 114.8054352 169.1161499 104.2404251z"/><path fill="#FFD372" d="M86.2875748,54.4656525c-2.9782028-2.128624-3.3875961-8.4196739-1.9062347-11.3278389
				c0.665596-1.306675,1.9336929-2.2023392,3.3713913-2.491188l79.8939514-16.0516281
				c2.5119781-0.5046883,5.1515503,0.2771301,6.8777771,2.1705265c6.8769836,7.5429974,2.3037109,20.3089886-5.4041595,27.7026463
				L86.2875748,54.4656525z"/><path fill="#FFB85A" d="M169.1241913,54.4707298H86.286171c-1.4180527-1.0060158-2.2562866-2.9525681-2.5786209-5.0413971
				c12.0422516,0.4129829,26.0181503-0.9537582,40.5873871-4.3318977
				c19.4557648-4.5125771,36.3842316-11.7454185,48.1686859-19.8810253
				c0.7733917,0.3739491,1.4696655,0.8895454,2.0626984,1.5467911
				C181.3984375,34.3057785,176.8342285,47.0697975,169.1241913,54.4707298z"/><path fill="#434A54" d="M98.4184418,99.5662842v-1.9295578l3.5972214,0.3349228
			c0.0129013,0,0.0258102-18.1277466,0.0258102-18.1277466c0.1677704,0.0132217,0.3352356,0.0132217,0.503006,0.0132217
			c7.3360825,0,13.2925262-5.9435349,13.2925262-13.2928391s-5.9564438-11.3223648-13.2925262-11.3223648H86.286171v44.3243637
			H98.4184418z"/><rect width="82.835" height="9.711" x="86.286" y="54.468" fill="#FF6060"/><rect width="82.835" height="3.27" x="86.286" y="54.468" fill="#FF8383"/><rect width="82.835" height="3.27" x="86.286" y="60.908" fill="#F44A4A"/><path fill="#F9E1D7" d="M102.1761169,101.0283279c0.1190186-0.9732895,0.1533508-1.9987106,0.1030884-3.058403
				c-0.305275-6.4361954-3.6156845-11.6997299-9.5705872-11.7891006c-5.9549103-0.0893631-8.7703705,5.0822296-8.4650955,11.5184326
				c0.3052826,6.4361954,3.6156921,11.6997299,9.5706024,11.7891006c0.0100632,0.0001526,0.0201111,0.0002899,0.030159,0.000412
				c1.2859802,0.0154877,2.5524902-0.3125,3.7286911-0.832634l0.4789429-0.2117996"/><path fill="#EDC1B2" d="M98.4178772,107.7839203l-0.3694687,0.6617355l-0.472702,0.2062378
				c-1.1773376,0.5241013-2.4493027,0.8507767-3.7297592,0.8335724h-0.0343094
				c-5.955513-0.0860214-9.2640839-5.3538895-9.5648422-11.7819977c-0.3093643-6.4367142,2.5093079-11.6101685,8.4648209-11.524353
				c1.3234711,0.0172043,2.518013,0.2922592,3.5750275,0.7821655c-0.4640961-0.0860214-0.9539948-0.1376343-1.4694977-0.1460266
				c-5.4657135-0.0860214-8.0524445,4.6663437-7.7773819,10.5701447c0.2836609,5.9126053,3.3257751,10.7421875,8.7913895,10.8282089
				h0.0258026C96.7335358,108.2222061,97.5929108,108.0675812,98.4178772,107.7839203z"/><path fill="#FFD372" d="M169.1161499,64.1789398l19.9664307,7.0404816
				c1.2692413,0.4475479,0.9478455,2.3254776-0.3979797,2.3254776h-56.9658813
				c-7.7919922,0-15.1901627-3.4248505-20.2318268-9.3659515l-0.0000076-0.0000076H169.1161499z"/><path fill="#FF6060" d="M126.1306534,115.7269592c1.0851822,7.3410797,7.3897781,12.9762878,15.0343552,12.9762878
				c7.6449738,0,13.949173-5.6352081,15.0343628-12.9762878H126.1306534z"/><path fill="#EDF5F9" d="M155.0950928,119.571022c0.5269012-1.2079239,0.9051971-2.4969711,1.1043091-3.8442764h-30.068779
				c0.1991043,1.3473053,0.5774155,2.6363525,1.1043167,3.8442764H155.0950928z"/><path fill="#31394C" d="M240,224.4683838h-33.6563721l-0.0001831-0.0029297l-1.210022-21.5600586
				c-1.1799927-21.1601563-14.9599609-39.0703125-35.1199951-45.6401367l-10.8300171-3.5302734
				c-1.1699829-3.2998047-5.6999512-6.6098633-7.2599487-7.6699219v-4.9897461
				c10.9450378-6.0247803,18.1999512-17.6906738,18.1999512-31.840332V74.5450439h18.5599976
				c1.0900269,0,1.9800415-0.75,2.1700439-1.8295898c0.1799927-1.0703125-0.4100342-2.0800781-1.4400024-2.4404297
				l-19.2900391-6.7998047c0-0.2917976,0-9.1103859,0-8.6000977c8-7.8999023,12.2200317-21.0200195,5.1400146-28.7797852
				c-1.9199829-2.1103516-4.9199829-3.0600586-7.8099976-2.4799805L87.5534058,39.6651611
				c-1.7599487,0.3598633-3.2799683,1.4799805-4.0599976,3.0200195c-1.5599976,3.0600586-1.3099976,9.5302734,1.7900391,12.2597656
				c0,11.9204788,0,22.2932968,0,34c-2.9656982,4.4191513-2.5503616,11.9911804,0,16.4003906
				c0.2853546,2.2807312-1.2895508,8.2901611,3.8499756,13.4296875c2.4799805,2.4804688,5.7800293,3.840332,9.2900391,3.840332
				c2.4699707,4.6098633,5.7599487,8.7597656,9.6499634,12.199707v11.2402344
				c-1.539978,1.0600586-6.0899658,4.3701172-7.2600098,7.6796875l-10.8299561,3.5302734
				c-20.1500244,6.5698242-33.9400024,24.4799805-35.1200562,45.6401367l-1.2099609,21.5600586l-0.0001831,0.0029297H20
				c-0.5522461,0-1,0.4477539-1,1s0.4477539,1,1,1h220c0.5522461,0,1-0.4477539,1-1S240.5522461,224.4683838,240,224.4683838z
				 M130.003418,173.0352783c3.5918427,3.1469879,6.6345062,6.5164337,9.2600098,10.1801758l-5.7700195,6.7998047h-6.9899902
				l-5.7699585-6.7998047C122.3228226,180.8225098,126.1955719,176.3418732,130.003418,173.0352783z M126.7834473,192.0152588
				h6.4400024l9.8299561,32.4501953h-26.1099854L126.7834473,192.0152588z M159.2234497,155.8551025l10.1699829,3.3100586
				c19.3699951,6.3100586,32.6099854,23.5200195,33.75,43.8598633l1.2000122,21.4404297h-59.2000122l-10.0700073-33.2099609
				l5.3900146-6.3500977c0.7600098,1.1098633,1.5,2.2597656,2.2199707,3.449707
				c0.1799927,0.2900391,0.4800415,0.4702148,0.8200073,0.4902344h0.0400391c0.3199463,0,0.6199951-0.1601563,0.8099976-0.4199219
				C150.5432434,179.8539734,157.7487335,166.1767731,159.2234497,155.8551025z M157.3634033,154.5753174
				c-0.8388519,7.9264832-5.6324463,18.3019409-9.7299805,25.1298828c0,0.2267609-3.0231171,4.8890076-4.0299683,6.3300781
				c-3.3753815-5.3157654-7.4027405-10.2274017-12.0100098-14.2602539c0.0500641-0.0332489,0.8543396-0.5788727,0.9099731-0.6196289
				c0,0,0,0,0.0100098,0c8.7099457-6.0697327,16.8683319-17.0252991,18.8699951-23.0302734
				C153.4234619,149.5953369,156.7034302,152.3453369,157.3634033,154.5753174z M188.753418,72.1651611
				c0.0499878,0.0200195,0.1500244,0.050293,0.1199951,0.2202148c-0.0199585,0.159668-0.1300049,0.159668-0.1900024,0.159668
				c-14.1909943,0-46.6931915,0-56.9599609,0c-7.0127563,0-13.4674683-2.8886948-17.9500122-7.3696289
				c10.2165604,0,43.578598,0,55.1699829,0C199.1171265,75.8218842,184.6862488,70.7301025,188.753418,72.1651611z
				 M102.543457,78.8551025c-0.1400146,0-0.2800293,0-0.4200439-0.0097656
				c-0.2799683-0.0200195-0.5599976,0.0800781-0.7600098,0.2597656c-0.2099609,0.1899414-0.3199463,0.4599609-0.3199463,0.7402344
				c-0.0100098,2.75-0.0100098,6.6499023-0.0100098,10.1201172c-1.3087006-1.9674454-2.7624969-3.3722458-5.1199951-4.2304688
				c-0.0100098,0-0.0100098,0-0.0200195-0.0097656c-3.4292603-1.0839691-6.5207672-0.4600449-8.6099854,1.1098633V65.175415
				c8.7474518,0,15.1456146,0,23.75,0c1.1099854,1.2695313,2.3299561,2.4296875,3.6300049,3.4399414
				C113.6834106,74.425415,108.6234131,78.8551025,102.543457,78.8551025z M168.1234131,63.175415
				c-21.7055054,0-67.1078644,0-80.8399658,0c0-0.212822,0-7.8387375,0-7.7099609c9.084053,0,71.6578979,0,80.8399658,0
				C168.1234131,55.8795738,168.1234131,63.6114159,168.1234131,63.175415z M85.2734375,43.5953369
				c0.5100098-1,1.5100098-1.7299805,2.6799927-1.9702148l79.8900146-16.0498047
				c2.2099609-0.4399414,4.4899902,0.2700195,5.9400024,1.8598633c6.2799683,6.8901367,2.2799683,18.7802734-5.0700073,26.0302734
				c-12.0741577,0-71.7572632,0-82.0800171,0C84.3134155,51.4654541,84.0634155,45.9752197,85.2734375,43.5953369z
				 M90.5534058,117.3653564c-4.0266876-4.0264511-3.1542511-8.7360306-3.2699585-9.4702148
				c1.7399902,1.6298828,3.9699707,2.5600586,6.5499878,2.5898438h0.2399902
				c0.6799927,3.5102539,1.7999878,6.9003906,3.3099976,10.090332
				C94.8034058,120.335083,92.4034424,119.2154541,90.5534058,117.3653564z M99.4234619,120.2154541
				c-0.7700195-1.5703125-1.4400024-3.1904297-2-4.8603516c-0.5700073-1.6699219-1.0300293-3.3896484-1.3700562-5.1298828
				c0.4500122-0.1000977,0.9100342-0.2402344,1.3700562-0.4301758c0.1799927-0.0600586,0.3699951-0.1396484,0.5499878-0.2197266
				l0.4799805-0.2202148c0.5100098-0.2197266,0.7399902-0.8100586,0.5100098-1.3198242
				c-0.2200317-0.5-0.8099976-0.7299805-1.3200073-0.5102539l-0.2199707,0.1000977l-0.2600098,0.1201172
				c-0.4899902,0.2099609-0.9700317,0.3798828-1.4500122,0.5102539
				c-10.1278992,2.5266647-13.3070221-13.8390732-7.9899902-19.1601563
				c2.6107864-2.6731491,7.1637802-2.3172073,9.5599976-0.3603516c0,0.0102539,0.0100098,0.0102539,0.0199585,0.0102539
				c0.3871994,0.2952652,0.9781494,0.8577042,1.4000244,1.4199219c0,0-0.0100098,0,0,0.0102539
				c1.7474136,2.1637878,2.1419601,4.8800888,2.2200317,5.0400391c0.7877579,4.72332,0.1405563,5.3510132,0.2699585,6
				c0.068634,0.4084473,0.4055634,0.7413254,0.8400269,0.7998047c0.135025,0.1317368,1.0299683-0.0907822,1.1300049-0.8500977
				c0.1007614-0.0983047,0.2365417-2.633255,0.0100098-4.4897461c-0.3488846-3.3144302-0.016861,3.600502-0.1300049-15.8300781
				c6.5099487-0.2202148,11.9199829-4.8203125,13.3899536-10.9301758c4.4800415,2.9902344,9.7800293,4.6298828,15.2900391,4.6298828
				h36.3999634v34.6899414c0,30.4765472-34.0425415,45.063797-58.0499878,24.6904297
				c-0.6799927-0.5800781-1.3499756-1.1801758-2-1.8100586C104.543457,128.7154541,101.5934448,124.6651611,99.4234619,120.2154541z
				 M149.9234619,142.0753174v4.3300781c-1.2515869,3.1489716-2.9452515,6.2983551-4.4000244,8.4599609v0.0097656
				c-3.7738342,5.7676697-9.0245361,11.205307-15.5200195,15.5400391h-0.0100098
				c-3.8350143-2.3275909-9.7178192-7.4678802-14.0899658-13.449707v-0.0102539
				c-2.4946899-3.4423828-4.4212646-6.9886627-5.8300171-10.5498047v-9.9204102
				C122.3385162,146.1381378,137.7945709,147.7439575,149.9234619,142.0753174z M108.6134033,148.1251221
				c1.9925079,5.9775238,9.3587189,16.3635101,18.8800049,23.0302734h0.0100098
				c0.1200409,0.0871124,0.7332306,0.5092621,0.9000244,0.6196289c-4.9123688,4.2819061-8.8092728,9.2570648-12,14.2602539
				c-5.8907394-8.4803925-12.4822159-21.1277161-13.7700195-31.4301758
				C103.2734375,152.3653564,106.5634155,149.6051025,108.6134033,148.1251221z M56.8634033,203.0250244
				c1.1300049-20.3398438,14.3800049-37.5498047,33.7400513-43.8598633l10.1699829-3.3100586
				c1.9076538,13.2047119,13.6402359,31.7893066,14.9299927,32.6298828c0.3891449,0.5188599,1.2948456,0.4517212,1.539978-0.0400391
				c0.1004257-0.0996094,2.0737991-3.3035278,2.3000488-3.5297852l5.3800049,6.340332l-10.0700073,33.2099609H55.6634521
				L56.8634033,203.0250244z"/><path fill="#31394C" d="M67.3339844 186.03479c-.4956055-.2392578-1.0952148-.0297852-1.3344727.4682617-.1484375.309082-.2939453.6196289-.4350586.9326172-.2275391.503418-.0039063 1.0952148.4990234 1.3227539.1337891.0605469.2739258.0893555.4116211.0893555.3808594 0 .7446289-.21875.9116211-.5883789.1352539-.2988281.2739258-.5957031.4155273-.890625C68.0415039 186.8707275 67.831543 186.2735596 67.3339844 186.03479zM65.2651367 190.7808838c-.5263672-.1787109-1.0913086.1025391-1.2685547.625-1.2963867 3.815918-2.0688477 7.8144531-2.2963867 11.8852539-.0307617.5512695.3911133 1.0229492.9428711 1.0541992.019043.0009766.0375977.0014648.0566406.0014648.5268555 0 .9677734-.4116211.9975586-.9443359.2172852-3.8891602.9550781-7.7089844 2.1928711-11.3530273C66.0678711 191.5269775 65.7880859 190.9586182 65.2651367 190.7808838zM131.2134399 93.7154541c0-2.2705078-1.8400269-4.1103516-4.1099854-4.1103516-2.2700195 0-4.1199951 1.8398438-4.1199951 4.1103516 0 2.2797852 1.8499756 4.1196289 4.1199951 4.1196289C129.3734131 97.835083 131.2134399 95.9952393 131.2134399 93.7154541zM117.4534302 82.8551025h13.7600098c.5599976 0 1-.449707 1-1 0-.5498047-.4400024-1-1-1h-13.7600098c-.5499878 0-1 .4501953-1 1C116.4534302 82.4053955 116.9034424 82.8551025 117.4534302 82.8551025zM156.1434326 89.6051025c-2.2700195 0-4.1099854 1.8398438-4.1099854 4.1103516 0 2.2797852 1.8399658 4.1196289 4.1099854 4.1196289 2.2800293 0 4.1199951-1.8398438 4.1199951-4.1196289C160.2634277 91.4449463 158.4234619 89.6051025 156.1434326 89.6051025zM149.2634277 82.8551025h13.7600098c.5599976 0 1-.449707 1-1 0-1.874176-2.5785522-.6284561-14.7600098-1-.5499878 0-1 .4501953-1 1C148.2634277 82.4053955 148.7134399 82.8551025 149.2634277 82.8551025zM156.2034302 114.7252197h-30.0700073c-.289978 0-.5700073.1298828-.7600098.3500977-.1900024.2197266-.2699585.5097656-.2299805.7998047 1.5090561 10.3119736 12.4583588 16.6442261 22.1900024 12.590332 5.1199951-2.1401367 9.0100098-6.8500977 9.8599854-12.590332.0400391-.2900391-.0499878-.5800781-.2399902-.7998047C156.7634277 114.8551025 156.4934082 114.7252197 156.2034302 114.7252197zM141.1634521 127.7052002c-6.5900269 0-12.3400269-4.6499023-13.8300171-10.9799805h27.6599731C153.503418 123.0552979 147.7634277 127.7052002 141.1634521 127.7052002z"/></svg>